<svg width="338" height="38" viewBox="169 0 338 38" fill="none" xmlns="http://www.w3.org/2000/svg">
<g clip-path="url(#clip0)">
<path fill-rule="evenodd" clip-rule="evenodd" d="M170.294 6.48375C169 9.025 169 12.35 169 19C169 25.65 169 28.975 170.294 31.5163C171.434 33.7488 173.251 35.5656 175.484 36.7056C178.025 38 181.35 38 188 38C194.65 38 197.975 38 200.516 36.7056C202.749 35.5656 204.566 33.7488 205.706 31.5163C207 28.975 207 25.65 207 19C207 12.35 207 9.025 205.706 6.48375C204.566 4.25125 202.749 2.43438 200.516 1.29438C197.975 0 194.65 0 188 0C181.35 0 178.025 0 175.484 1.29438C173.251 2.43438 171.434 4.25125 170.294 6.48375ZM197.482 10.2481C197.815 10.2481 198.129 10.3847 198.361 10.6163C198.593 10.8538 198.723 11.1744 198.717 11.5009C198.658 15.0397 198.521 17.7472 198.266 19.8906C198.017 22.0341 197.643 23.6253 197.079 24.9138C196.699 25.7747 196.229 26.4872 195.677 27.0928C194.935 27.8944 194.086 28.4763 193.16 29.0285C192.764 29.2653 192.352 29.4991 191.92 29.7444C190.999 30.2677 189.985 30.8431 188.837 31.6113C188.422 31.8903 187.881 31.8903 187.466 31.6113C186.3 30.8341 185.273 30.2516 184.343 29.7241C184.137 29.6068 183.935 29.4922 183.737 29.3788C182.65 28.7494 181.671 28.1497 180.816 27.2828C180.246 26.7128 179.753 26.0181 179.361 25.1928C178.827 24.0884 178.464 22.7525 178.197 21.0247C177.841 18.715 177.663 15.6928 177.598 11.5009C177.592 11.1744 177.716 10.8538 177.948 10.6163C178.179 10.3847 178.5 10.2481 178.833 10.2481H179.343C180.917 10.2541 184.39 10.0997 187.394 7.76032C187.84 7.41594 188.463 7.41594 188.909 7.76032C191.913 10.0997 195.386 10.2541 196.966 10.2481H197.482ZM194.721 24.1241C195.107 23.3284 195.428 22.23 195.671 20.6506C195.962 18.7625 196.14 16.1975 196.224 12.7063C194.371 12.6528 191.189 12.2966 188.154 10.2541C185.12 12.2906 181.938 12.6469 180.091 12.7063C180.157 15.5919 180.287 17.8363 180.495 19.5997C180.733 21.6066 181.071 22.9663 181.493 23.9222C181.772 24.5575 182.08 25.0147 182.449 25.4184C182.941 25.9588 183.565 26.4041 184.414 26.9147C184.766 27.126 185.154 27.3458 185.577 27.5851C186.33 28.0113 187.192 28.4993 188.154 29.1116C189.099 28.5093 189.949 28.0263 190.693 27.6032C190.917 27.4757 191.132 27.3536 191.337 27.2353C192.382 26.6356 193.154 26.1369 193.73 25.555C194.116 25.1572 194.43 24.7238 194.721 24.1241Z" fill="white"/>
</g>
<path d="M221.887 15.208H217.631V12.7H229.221V15.208H224.965V26H221.887V15.208ZM232.706 17.127C233.061 16.633 233.536 16.2593 234.131 16.006C234.739 15.7527 235.436 15.626 236.221 15.626V18.362C235.892 18.3367 235.67 18.324 235.556 18.324C234.707 18.324 234.042 18.5647 233.561 19.046C233.08 19.5147 232.839 20.224 232.839 21.174V26H229.875V15.778H232.706V17.127ZM247.786 15.778V26H244.974V24.784C244.581 25.2273 244.112 25.5693 243.568 25.81C243.023 26.038 242.434 26.152 241.801 26.152C240.458 26.152 239.394 25.7657 238.609 24.993C237.823 24.2203 237.431 23.074 237.431 21.554V15.778H240.395V21.117C240.395 22.7637 241.085 23.587 242.466 23.587C243.175 23.587 243.745 23.359 244.176 22.903C244.606 22.4343 244.822 21.744 244.822 20.832V15.778H247.786ZM253.401 26.152C252.552 26.152 251.722 26.0507 250.912 25.848C250.101 25.6327 249.455 25.3667 248.974 25.05L249.962 22.922C250.418 23.2133 250.969 23.454 251.615 23.644C252.261 23.8213 252.894 23.91 253.515 23.91C254.769 23.91 255.396 23.5997 255.396 22.979C255.396 22.6877 255.225 22.4787 254.883 22.352C254.541 22.2253 254.015 22.1177 253.306 22.029C252.47 21.9023 251.779 21.7567 251.235 21.592C250.69 21.4273 250.215 21.136 249.81 20.718C249.417 20.3 249.221 19.7047 249.221 18.932C249.221 18.286 249.404 17.716 249.772 17.222C250.152 16.7153 250.696 16.3227 251.406 16.044C252.128 15.7653 252.976 15.626 253.952 15.626C254.674 15.626 255.389 15.7083 256.099 15.873C256.821 16.025 257.416 16.2403 257.885 16.519L256.897 18.628C255.997 18.1213 255.016 17.868 253.952 17.868C253.318 17.868 252.843 17.9567 252.527 18.134C252.21 18.3113 252.052 18.5393 252.052 18.818C252.052 19.1347 252.223 19.3563 252.565 19.483C252.907 19.6097 253.451 19.73 254.199 19.844C255.035 19.9833 255.719 20.1353 256.251 20.3C256.783 20.452 257.245 20.737 257.638 21.155C258.03 21.573 258.227 22.1557 258.227 22.903C258.227 23.5363 258.037 24.1 257.657 24.594C257.277 25.088 256.719 25.4743 255.985 25.753C255.263 26.019 254.401 26.152 253.401 26.152ZM266.078 25.506C265.787 25.7213 265.426 25.886 264.995 26C264.577 26.1013 264.134 26.152 263.665 26.152C262.449 26.152 261.506 25.8417 260.834 25.221C260.176 24.6003 259.846 23.6883 259.846 22.485V18.286H258.269V16.006H259.846V13.517H262.81V16.006H265.356V18.286H262.81V22.447C262.81 22.8777 262.918 23.2133 263.133 23.454C263.361 23.682 263.678 23.796 264.083 23.796C264.552 23.796 264.951 23.6693 265.28 23.416L266.078 25.506ZM292.294 12.7L287.943 26H284.637L281.711 16.994L278.69 26H275.403L271.033 12.7H274.225L277.227 22.048L280.362 12.7H283.212L286.252 22.124L289.349 12.7H292.294ZM296.596 15.626C298.179 15.626 299.395 16.006 300.244 16.766C301.092 17.5133 301.517 18.647 301.517 20.167V26H298.743V24.727C298.185 25.677 297.147 26.152 295.627 26.152C294.841 26.152 294.157 26.019 293.575 25.753C293.005 25.487 292.568 25.1197 292.264 24.651C291.96 24.1823 291.808 23.6503 291.808 23.055C291.808 22.105 292.162 21.3577 292.872 20.813C293.594 20.2683 294.702 19.996 296.197 19.996H298.553C298.553 19.35 298.356 18.856 297.964 18.514C297.571 18.1593 296.982 17.982 296.197 17.982C295.652 17.982 295.114 18.0707 294.582 18.248C294.062 18.4127 293.619 18.6407 293.252 18.932L292.188 16.861C292.745 16.4683 293.41 16.1643 294.183 15.949C294.968 15.7337 295.772 15.626 296.596 15.626ZM296.368 24.157C296.874 24.157 297.324 24.043 297.717 23.815C298.109 23.5743 298.388 23.226 298.553 22.77V21.725H296.52C295.304 21.725 294.696 22.124 294.696 22.922C294.696 23.302 294.841 23.606 295.133 23.834C295.437 24.0493 295.848 24.157 296.368 24.157ZM303.629 11.902H306.593V26H303.629V11.902ZM308.774 11.902H311.738V26H308.774V11.902ZM323.932 20.927C323.932 20.965 323.913 21.231 323.875 21.725H316.142C316.281 22.3583 316.611 22.8587 317.13 23.226C317.649 23.5933 318.295 23.777 319.068 23.777C319.6 23.777 320.069 23.701 320.474 23.549C320.892 23.3843 321.278 23.131 321.633 22.789L323.21 24.499C322.247 25.601 320.841 26.152 318.992 26.152C317.839 26.152 316.82 25.9303 315.933 25.487C315.046 25.031 314.362 24.404 313.881 23.606C313.4 22.808 313.159 21.9023 313.159 20.889C313.159 19.8883 313.393 18.989 313.862 18.191C314.343 17.3803 314.996 16.7533 315.819 16.31C316.655 15.854 317.586 15.626 318.612 15.626C319.613 15.626 320.518 15.8413 321.329 16.272C322.14 16.7027 322.773 17.3233 323.229 18.134C323.698 18.932 323.932 19.863 323.932 20.927ZM318.631 17.868C317.96 17.868 317.396 18.058 316.94 18.438C316.484 18.818 316.205 19.3373 316.104 19.996H321.139C321.038 19.35 320.759 18.837 320.303 18.457C319.847 18.0643 319.29 17.868 318.631 17.868ZM331.928 25.506C331.637 25.7213 331.276 25.886 330.845 26C330.427 26.1013 329.984 26.152 329.515 26.152C328.299 26.152 327.356 25.8417 326.684 25.221C326.026 24.6003 325.696 23.6883 325.696 22.485V18.286H324.119V16.006H325.696V13.517H328.66V16.006H331.206V18.286H328.66V22.447C328.66 22.8777 328.768 23.2133 328.983 23.454C329.211 23.682 329.528 23.796 329.933 23.796C330.402 23.796 330.801 23.6693 331.13 23.416L331.928 25.506Z" fill="white"/>
<defs>
<clipPath id="clip0">
<rect width="38" height="38" fill="white" transform="translate(169)"/>
</clipPath>
</defs>
</svg>
